<svg width="28" height="28" viewBox="0 0 28 28" fill="none" xmlns="http://www.w3.org/2000/svg">
<circle cx="14" cy="14" r="14" fill="white"/>
<path d="M10.8323 10.9811C10.7296 10.9811 10.5604 11.0535 10.4577 11.1477C10.355 11.2346 10.1919 11.3578 10.0892 11.4157C9.84752 11.5606 9.53336 11.93 9.50315 12.1039C9.49107 12.1836 9.44273 12.2415 9.40648 12.2343C9.30982 12.2053 9.30982 13.2411 9.40648 13.357C9.46086 13.4222 9.46086 13.444 9.40648 13.444C9.36419 13.444 9.33398 13.5092 9.33398 13.5961C9.33398 13.6758 9.36419 13.7192 9.3944 13.6975C9.43065 13.6685 9.45482 13.9873 9.45482 14.603C9.45482 14.7341 9.27882 15.8694 9.44273 15.9431C9.51978 15.9767 9.60463 17.1132 9.59377 17.2542C9.56387 17.6915 9.72325 17.7246 9.71461 18.0872C9.70252 18.319 9.72669 18.4422 9.78106 18.4639C9.84148 18.4929 9.85356 18.5943 9.83544 18.8333C9.79921 19.2134 10.1535 19.5035 10.3006 19.746C10.4618 20.0117 10.843 20.1074 11.074 20.2458C11.1283 20.2821 11.225 20.3328 11.2854 20.3545C11.5526 20.4506 11.6823 20.2531 11.8896 20.2531C11.9319 20.2531 12.0648 20.1227 12.1796 19.9633C12.2944 19.804 12.4152 19.6736 12.4575 19.6736C12.6392 19.6736 12.4152 19.2141 12.4152 18.9854C12.4152 18.7174 12.4394 18.587 12.5058 18.5653C12.6267 18.5073 12.6085 17.1383 12.4877 17.1383C12.4212 17.1383 12.4152 16.9717 12.4454 16.2618C12.4817 15.6388 12.4756 15.3925 12.4273 15.4288C12.391 15.4505 12.3487 15.4432 12.3306 15.407C12.3065 15.3708 12.3185 15.3201 12.3548 15.2911C12.385 15.2694 12.4152 15.0231 12.4152 14.7406C12.4152 14.3481 12.5965 14.2772 12.5965 13.951C12.5965 13.7555 12.5723 13.6613 12.5119 13.6613C12.4515 13.6613 12.4333 13.5381 12.4394 13.1542C12.4425 12.9731 12.6647 12.4025 12.5058 12.3284C12.4575 12.3067 12.4152 12.2125 12.4152 12.1111C12.4152 12.017 12.3729 11.9228 12.3246 11.8938C12.2762 11.8721 12.234 11.8069 12.234 11.7417C12.234 11.6837 12.1917 11.633 12.1433 11.633C12.095 11.633 11.9379 11.5534 11.799 11.4519C11.654 11.3505 11.4908 11.2491 11.4365 11.2201C11.376 11.1984 11.3277 11.1332 11.3277 11.0825C11.3277 11.0246 11.2673 10.9811 11.1948 10.9811C11.0546 10.9811 11.029 10.9811 10.8323 10.9811Z" fill="#E56C45"/>
<path d="M15.6759 7.32933C15.6552 7.39159 15.5794 7.44607 15.5105 7.44607C15.3797 7.44607 15.0145 7.82741 15.0145 7.9675C15.0145 8.01419 14.9732 8.06867 14.9319 8.09202C14.863 8.11537 14.8423 8.62123 14.8492 10.2789C14.8492 11.9988 14.8354 12.4269 14.7596 12.4269C14.6908 12.4269 14.677 12.6292 14.6976 13.3608C14.7252 14.139 14.7114 14.2947 14.6288 14.2947C14.5461 14.2947 14.5392 14.4036 14.5736 14.9173C14.615 15.4621 14.6081 15.5399 14.5048 15.5399C14.4083 15.5399 14.3945 15.6722 14.3945 16.6294C14.3945 17.3065 14.4221 17.719 14.4634 17.719C14.5048 17.719 14.5874 17.8591 14.6494 18.0303C14.7252 18.2249 14.8492 18.3805 14.9594 18.4428C15.0697 18.4895 15.1523 18.5595 15.1523 18.5906C15.1523 18.6218 15.2212 18.6529 15.3108 18.6685C15.3934 18.684 15.4554 18.7385 15.4485 18.793C15.4348 18.8475 15.4968 18.8864 15.5932 18.8864C15.7379 18.8864 16.1374 19.1821 16.2683 19.3845C16.289 19.4234 16.5577 19.4467 16.8677 19.4389C17.3637 19.4234 17.4601 19.3922 17.7701 19.1743C17.9699 19.0265 18.1146 18.8708 18.1146 18.7852C18.1146 18.7074 18.1421 18.6607 18.1766 18.684C18.211 18.7152 18.2248 18.6607 18.2041 18.5751C18.1835 18.4817 18.211 18.4039 18.2799 18.3727C18.3626 18.3338 18.3901 18.2171 18.3901 17.8435C18.3901 17.5634 18.4246 17.3143 18.4797 17.2598C18.5279 17.1898 18.5279 17.1742 18.4866 17.1976C18.3626 17.2754 18.3144 17.0419 18.4315 16.9407C18.5004 16.8707 18.5279 16.6839 18.5279 16.3104C18.5279 16.0224 18.5624 15.7578 18.5968 15.7345C18.6381 15.7111 18.6657 15.4621 18.6657 15.1819C18.6657 14.9017 18.6381 14.6838 18.5968 14.6838C18.5624 14.6838 18.5279 14.4893 18.5279 14.248C18.5279 13.9834 18.5555 13.8355 18.5968 13.8667C18.6381 13.8978 18.6657 13.7266 18.6657 13.4075C18.6657 13.0806 18.6381 12.8938 18.583 12.8705C18.5141 12.8471 18.5004 12.5825 18.5073 11.8276C18.521 10.9482 18.5073 10.8003 18.4108 10.7614C18.3144 10.7147 18.3075 10.6058 18.3488 9.85087C18.3833 9.25161 18.3764 9.00257 18.3281 9.04149C18.2524 9.08818 18.2248 8.98701 18.2455 8.78466C18.2524 8.73797 18.2248 8.69127 18.1835 8.69127C18.149 8.69127 18.1146 8.62123 18.1146 8.52784C18.1146 8.44223 18.087 8.39554 18.0457 8.41888C18.0112 8.44223 17.901 8.37997 17.8115 8.27102C17.7219 8.16206 17.6186 8.06867 17.5704 8.06867C17.529 8.06867 17.4946 8.02976 17.4946 7.99085C17.4946 7.94415 17.3843 7.91302 17.2535 7.91302C17.095 7.91302 16.9917 7.86633 16.9641 7.7885C16.9435 7.72624 16.8883 7.68733 16.8332 7.71068C16.785 7.73402 16.7092 7.69511 16.6679 7.64063C16.6197 7.57837 16.5577 7.53946 16.5301 7.56281C16.4957 7.58615 16.4543 7.57059 16.4268 7.52389C16.4061 7.48498 16.3234 7.44607 16.2477 7.44607C16.1788 7.44607 16.1168 7.39159 16.1168 7.32933C16.1168 7.25151 16.0479 7.21259 15.917 7.21259C15.8068 7.21259 15.7034 7.25929 15.6759 7.32933Z" fill="#E56C45"/>
</svg>
