<svg width="28" height="28" viewBox="0 0 28 28" fill="none" xmlns="http://www.w3.org/2000/svg">
<circle cx="14" cy="14" r="14" fill="white"/>
<path d="M16.0532 10.486C16.5229 10.5903 17.3188 11.1516 17.7162 11.5216C17.7232 11.5278 17.7311 11.5348 17.7384 11.5412C17.8303 11.6237 17.9206 11.7016 18.0055 11.775C18.1061 11.8781 18.2649 11.9404 17.9748 11.8325C18.2471 11.9372 18.7255 12.1075 19.1852 12.657C19.3763 12.8831 19.4997 13.1462 19.5631 13.3684C19.7037 13.82 19.6774 14.111 19.6849 14.241C19.7035 14.5018 19.4846 15.0196 19.3277 15.2288C19.2547 15.3154 19.1811 15.398 19.1077 15.4767C18.6466 15.9672 18.2005 16.342 17.756 16.7079C17.3328 17.0317 17.2112 17.0401 17.0456 17.1275C16.8917 17.198 16.763 17.2542 16.633 17.3131C16.3772 17.4284 16.1331 17.5447 15.8899 17.6693C15.4029 17.9185 14.9218 18.1985 14.4434 18.5033C13.7681 18.9099 13.135 19.4058 11.9672 19.6481C11.921 19.6584 11.8748 19.6678 11.8293 19.6763C11.7441 19.6922 11.6615 19.7049 11.5859 19.7154C11.2403 19.7694 10.8178 19.6447 10.5926 19.4898C10.3571 19.337 10.2426 19.1937 10.1651 19.1006C9.56655 18.271 9.52542 17.7097 9.44539 17.2678C9.36059 16.542 9.38759 16.0839 9.40818 15.7044C9.40533 15.5052 9.40666 15.3074 9.41144 15.1105C9.43417 14.2552 9.47925 13.4029 9.55331 12.5472C9.59061 12.1201 9.63502 11.6902 9.69295 11.2565C9.72219 11.0389 9.75461 10.8201 9.7954 10.5946C9.81627 10.48 9.83884 10.3645 9.86878 10.2378C9.8839 10.1747 9.89981 10.1107 9.92558 10.0263C9.93757 9.98805 9.95241 9.94108 9.97821 9.877C9.9935 9.84036 10.0027 9.81641 10.0371 9.75122C10.0734 9.69715 10.091 9.61275 10.2999 9.43928C10.0452 9.65711 10.0627 9.79676 10.0652 9.75511C10.0839 9.72877 10.0871 9.56739 10.3179 9.30072C10.5094 9.10128 10.6896 9.03896 10.8037 8.99983C10.9631 8.9506 11.0562 8.94173 11.1338 8.93018C12.0089 8.83411 12.643 9.09826 13.224 9.34141C13.8165 9.60553 14.3456 9.92131 14.8528 10.2529C15.1618 10.4281 15.4505 10.5977 15.7136 10.7587C15.8953 10.8696 16.0702 10.9817 16.2112 11.0706C16.39 11.1876 16.5493 11.3057 16.6881 11.4236C16.9261 11.6375 17.1206 11.7905 17.4099 12.2308C17.5622 12.4678 17.6304 12.8247 17.5835 13.0911C17.5412 13.3617 17.4391 13.5431 17.3495 13.6763C17.0627 14.0831 16.7306 14.389 16.4583 14.6137C16.3692 14.6872 16.2856 14.7525 16.2104 14.8106C16.0172 14.9866 15.7998 15.1743 15.7453 15.2488C15.5299 15.4887 15.3464 15.658 15.1543 15.8353C15.1213 15.8497 15.0875 15.8639 15.0527 15.8784C14.6237 16.0549 14.215 16.3824 13.5622 16.8791C13.2785 17.0948 12.9478 17.3423 12.5532 17.6201C12.4745 17.6755 12.403 17.7196 12.3417 17.7526C12.2168 17.848 12.0122 17.9203 11.8433 17.9189C11.6728 17.9203 11.5542 17.8776 11.4732 17.8417C11.3127 17.7651 11.2573 17.7031 11.2073 17.6555C11.1168 17.5606 11.0853 17.5015 11.0547 17.4472C10.9988 17.3408 10.9759 17.2629 10.9543 17.1785C10.9488 17.1475 10.9447 17.1181 10.9412 17.0897C10.934 17.0309 10.9303 16.9785 10.926 16.9278C10.9115 16.7535 10.8441 16.5998 10.7772 16.4177C10.6909 16.1819 10.6083 15.8979 10.6792 15.546C10.9237 14.4531 10.888 14.0151 10.8329 13.647C10.8188 13.5417 10.8067 13.4456 10.8069 13.3506C10.8075 13.0393 10.9292 12.6231 11.0482 12.3209C11.0881 12.2192 11.1172 12.0701 11.1337 11.9091C11.1651 11.7125 11.192 11.4432 11.4588 11.1142C11.7363 10.7651 12.2502 10.6543 12.4996 10.6691C12.8651 10.6749 13.1556 10.8044 13.4215 10.9435C13.6969 11.0904 13.9564 11.2662 14.2271 11.4224C14.3992 11.5217 14.5432 11.606 14.6546 11.6641C14.7082 11.692 14.7576 11.7156 14.7839 11.7238C14.8033 11.732 14.8415 11.7273 14.6953 11.6779C14.9945 11.7354 15.2298 11.8061 15.4711 11.914C15.5349 11.9429 15.5993 11.9751 15.666 12.0132C15.9045 12.1529 16.1237 12.4404 16.1959 12.7086C16.2741 12.9784 16.2516 13.2042 16.2085 13.3803C16.1098 13.7526 15.9119 13.9798 15.6913 14.1482C15.5337 14.284 15.345 14.4512 15.1519 14.6295C14.8686 14.8906 14.5777 15.1733 14.3369 15.4126C14.232 15.4923 14.1265 15.5718 13.9941 15.664C13.9286 15.7092 13.856 15.759 13.7521 15.8206C13.6992 15.8513 13.6429 15.8848 13.5348 15.9339C13.4877 15.9548 13.4111 15.9872 13.3129 16.0146C13.1909 16.0414 13.0392 16.1037 12.6719 16.0393C12.2965 15.9671 11.9471 15.7039 11.7809 15.4791C11.605 15.2507 11.5353 15.0618 11.4843 14.9053C11.3904 14.5931 11.3795 14.373 11.3716 14.166C11.3633 13.7594 11.4057 13.4262 11.4603 13.093C11.4861 12.9411 11.5254 12.7942 11.578 12.652C11.5915 12.5441 11.7159 12.2892 11.7747 12.1977C11.882 12.0749 12.0769 11.8832 12.3447 11.7704C12.6118 11.6538 12.8945 11.6472 13.0836 11.6865C13.4032 11.7588 13.5071 11.8723 13.6098 11.9709C13.8918 12.2928 13.8941 12.5921 13.7919 12.8387C13.6869 13.0884 13.4002 13.2367 13.1122 13.3406C13.0326 13.3754 12.9326 13.415 12.9898 13.4692C13.0241 13.4996 13.1281 13.5178 13.2352 13.4854C13.3423 13.4551 13.4109 13.3962 13.4225 13.4051L13.5859 13.0278C13.5922 13.1334 13.5913 13.2468 13.5842 13.3581C13.5685 13.6001 13.5687 13.8469 13.5943 14.0301C13.6055 14.118 13.6303 14.1961 13.6348 14.1821C13.6342 14.174 13.6314 14.1358 13.5654 14.0453C13.5067 13.9578 13.3252 13.8136 13.1374 13.7775C12.8179 13.7245 12.7245 13.7839 12.6561 13.7963C12.5954 13.8149 12.5695 13.8273 12.5526 13.8344C12.5211 13.8485 12.5236 13.8469 12.5296 13.8409C12.5441 13.8282 12.5812 13.7982 12.6201 13.7648C12.6999 13.6968 12.7935 13.613 12.8882 13.5272C13.3262 13.1303 13.7932 12.6924 14.3423 12.2793C14.2156 12.3737 14.0845 12.4995 13.9986 12.7621C13.9591 12.8943 13.928 13.0761 13.9873 13.3148C14.0401 13.5516 14.238 13.8236 14.4475 13.947C14.4293 13.9362 14.2775 13.8733 14.1374 13.8404C13.7637 13.7269 13.7083 13.6565 13.5891 13.5922C13.1853 13.3338 12.9426 13.1365 12.6822 12.9658C12.5582 12.8831 12.4389 12.8111 12.3553 12.7694C12.2847 12.7203 12.191 12.7472 12.4545 12.7383C12.5613 12.7302 12.7626 12.6596 12.8908 12.5384C13.1405 12.3133 13.1213 12.21 13.1434 12.2208C13.1138 12.7153 13.0757 13.1417 13.04 13.4618C13.0013 13.8014 12.93 14.0347 12.871 14.2357C12.8306 14.3737 12.7961 14.4953 12.7841 14.6201C12.7776 14.6871 12.7712 14.7784 12.765 14.8875C12.7348 15.3058 12.7375 16.164 12.7739 16.415C12.7738 16.4216 12.7732 16.4268 12.7719 16.4305C12.7499 16.3918 12.7402 16.3797 12.694 16.3223C12.6663 16.2916 12.643 16.2535 12.5256 16.1573C12.4607 16.1104 12.3798 16.0363 12.149 15.9631C11.9412 15.8768 11.4139 15.9161 11.1547 16.1401C11.3603 16.0246 11.5801 15.9077 11.7911 15.7948C12.2591 15.5445 12.6901 15.3081 12.8705 15.1411C13.1868 14.8487 13.5923 14.5713 13.9257 14.3238C14.1103 14.1874 14.2787 14.0528 14.3662 13.9595C14.5143 13.8047 14.6052 13.7237 14.6673 13.645C14.8412 13.4269 15.008 13.3233 15.2306 13.1605C15.3824 13.0481 15.5618 12.9099 15.7338 12.6901C15.7503 12.6688 15.7659 12.6483 15.7812 12.628C15.7665 12.6559 15.7297 12.7192 15.7183 12.84C15.7042 12.959 15.7483 13.1222 15.8114 13.2096C15.8065 13.167 15.6963 13.0065 15.6245 12.9092C15.4859 12.7233 15.3517 12.571 15.1552 12.4377C15.0803 12.3861 15.006 12.3398 14.9189 12.2915C14.5295 12.076 14.1463 11.8521 13.8681 11.6402C13.7413 11.5433 13.5891 11.4476 13.4288 11.353C13.2168 11.2277 12.993 11.1065 12.8004 10.9831C12.6415 10.8813 12.5243 10.7726 12.4167 10.6799C12.3838 10.6513 12.3505 10.6238 12.3187 10.5992C12.1824 10.5498 12.0477 10.5091 11.917 10.4805C11.8939 10.4838 11.8708 10.4883 11.846 10.4931C11.724 10.5175 11.5831 10.5584 11.4636 10.5934C11.4338 10.6021 11.4067 10.6103 11.3835 10.6177C11.2998 10.6144 11.2629 10.7351 11.5763 10.4704C11.7393 10.2741 11.7138 10.2087 11.7016 10.2676C11.674 10.3114 11.6562 10.5365 11.3387 10.7954C11.5932 10.5617 11.5297 10.5521 11.557 10.5204C11.565 10.4982 11.5638 10.4945 11.5618 10.4952C11.5571 10.498 11.547 10.5196 11.5378 10.5421C11.4713 10.7155 11.4076 10.975 11.3837 11.262C11.3671 11.4607 11.3668 11.6923 11.3705 11.9222C11.3758 12.2632 11.3895 12.6025 11.3603 12.8365C11.3493 12.9264 11.3138 12.9977 11.2786 13.0733C11.2784 13.0736 11.2782 13.074 11.278 13.0743C11.2756 13.0794 11.2733 13.0845 11.2709 13.0896C11.2772 13.6655 11.3014 14.2417 11.3396 14.8193C11.3489 14.8686 11.3581 14.9188 11.3673 14.9689C11.3733 15.0015 11.3793 15.0341 11.3853 15.0666C11.4244 15.2668 11.469 15.4519 11.5247 15.5754C11.5939 15.729 11.6567 16.1214 11.7569 16.5043C11.8215 16.7545 11.9028 16.9982 11.9886 17.1635C12.0384 17.2599 12.0384 17.3584 12.0391 17.4461C12.0378 17.5257 12.0475 17.6049 12.0557 17.6002C12.0558 17.5999 12.0559 17.5996 12.056 17.5993C12.0477 17.5988 12.02 17.4547 11.6604 17.3204C11.5462 17.2828 11.4059 17.2676 11.2866 17.2786C11.3268 17.2652 11.3629 17.2524 11.3955 17.2414C11.4463 17.2246 11.5265 17.2309 11.6539 17.2101C11.7337 17.1968 11.8381 17.1694 11.9583 17.1227C12.2513 16.9479 12.5815 16.7072 12.9061 16.4583C12.9235 16.4344 12.9396 16.4102 12.9542 16.3856C12.9896 16.3314 13.0167 16.278 13.0344 16.2252C13.0529 16.1692 13.0628 16.111 13.0735 16.0512C13.0883 15.9696 13.1009 15.8873 13.1441 15.7999C13.1775 15.7318 13.2307 15.6785 13.2836 15.6627C13.3079 15.6556 13.3309 15.6571 13.3517 15.6585C13.3756 15.6601 13.3967 15.6616 13.4138 15.6501C13.4261 15.6417 13.4335 15.6249 13.4427 15.6043C13.4584 15.5709 13.4789 15.5275 13.5296 15.4943C13.7196 15.3697 13.9455 15.2414 14.1704 15.1208C14.4199 14.9868 14.6709 14.861 14.8632 14.7534C15.0773 14.632 15.4253 14.5069 15.7102 14.4137C15.838 14.3816 16.0161 14.2798 15.8323 14.43C15.8755 14.3997 15.9165 14.37 15.9548 14.3411C16.0977 14.233 16.2227 14.0967 16.3377 13.966C16.4762 13.8089 16.5985 13.6613 16.7308 13.5762C16.7576 13.5589 16.8136 13.5607 16.8835 13.5621C16.933 13.5632 16.9899 13.5638 17.0475 13.558C17.0954 13.5066 17.1409 13.4561 17.1833 13.4068L16.8711 14.2702C16.8762 14.1106 16.8493 14.0937 16.8993 14.2496C16.8972 14.2603 16.8956 14.2722 16.8945 14.285C16.8945 14.2853 16.8944 14.2855 16.8944 14.2857C16.8883 14.3564 16.9021 14.4668 16.9685 14.5936C16.9482 14.7329 17.0808 14.8822 17.0313 14.7894C17.0033 14.7778 16.9755 14.7654 16.9481 14.7522C16.6984 14.6304 16.5968 14.5037 16.5248 14.4065C16.4543 14.3086 16.4118 14.2284 16.337 14.1599C16.2535 14.0827 16.1558 14.0356 16.0615 13.9953C15.929 13.9383 15.8008 13.893 15.7225 13.7791C15.7171 13.7713 15.7109 13.7625 15.705 13.754C15.648 13.6723 15.561 13.553 15.4903 13.3956C15.1417 13.1313 14.7536 12.8798 14.3492 12.6388C14.0253 12.4462 13.6885 12.2593 13.3468 12.0785C12.9755 11.8821 12.6061 11.6983 12.2362 11.5386C11.8942 11.3902 11.6053 11.1848 11.4042 10.9536C11.2084 10.7206 11.0797 10.4802 11.0403 10.2183C10.9988 9.95638 11.2347 9.67174 11.6236 9.53332C12.0127 9.39152 12.4943 9.39438 12.9301 9.51383C13.4025 9.64363 13.8463 9.7921 14.2856 9.95319C14.5145 10.0374 14.7346 10.1213 14.9608 10.2125C14.9969 10.2236 15.0327 10.2349 15.0678 10.2463C15.335 10.3342 15.5955 10.3825 15.8665 10.4428C15.9264 10.4554 15.9921 10.4714 16.0532 10.486Z" fill="#E56C45"/>
</svg>
